<!-- 
<svg width="30" height="30" viewBox="0 0 30 30" fill="none" xmlns="http://www.w3.org/2000/svg">
<path d="M20.3086 10.5H12.5039C11.3972 10.5 10.5 11.3972 10.5 12.5039V20.3086C10.5 21.4153 11.3972 22.3125 12.5039 22.3125H20.3086C21.4153 22.3125 22.3125 21.4153 22.3125 20.3086V12.5039C22.3125 11.3972 21.4153 10.5 20.3086 10.5Z" stroke="#C5C5C5" strokeWidth="1.25" strokeLinejoin="round"/>
<path d="M19.4824 10.5L19.5 9.65625C19.4985 9.13456 19.2906 8.63466 18.9217 8.26577C18.5528 7.89688 18.0529 7.68898 17.5313 7.6875H9.9375C9.3413 7.68926 8.77003 7.92688 8.34846 8.34846C7.92688 8.77003 7.68926 9.3413 7.6875 9.9375V17.5313C7.68898 18.0529 7.89688 18.5528 8.26577 18.9217C8.63466 19.2906 9.13456 19.4985 9.65625 19.5H10.5M16.4063 13.5938V19.2188M19.2188 16.4063H13.5938" stroke="#C5C5C5" strokeWidth="1.25" strokeLinecap="round" strokeLinejoin="round"/>
</svg> -->



<svg width="19" height="19" viewBox="0 0 19 19" fill="none" xmlns="http://www.w3.org/2000/svg">
<g id="trash-2">
<path id="Vector" d="M2.875 5.125H4.375H16.375" stroke="#FA8B9D" strokeWidth="1.4" strokeLinecap="round" strokeLinejoin="round"/>
<path id="Vector_2" d="M14.875 5.125V15.625C14.875 16.0228 14.717 16.4044 14.4357 16.6857C14.1544 16.967 13.7728 17.125 13.375 17.125H5.875C5.47718 17.125 5.09564 16.967 4.81434 16.6857C4.53304 16.4044 4.375 16.0228 4.375 15.625V5.125M6.625 5.125V3.625C6.625 3.22718 6.78304 2.84564 7.06434 2.56434C7.34565 2.28304 7.72718 2.125 8.125 2.125H11.125C11.5228 2.125 11.9044 2.28304 12.1857 2.56434C12.467 2.84564 12.625 3.22718 12.625 3.625V5.125" stroke="#FA8B9D" strokeWidth="1.4" strokeLinecap="round" strokeLinejoin="round"/>
<path id="Vector_3" d="M8.125 8.875V13.375" stroke="#FA8B9D" strokeWidth="1.4" strokeLinecap="round" strokeLinejoin="round"/>
<path id="Vector_4" d="M11.125 8.875V13.375" stroke="#FA8B9D" strokeWidth="1.4" strokeLinecap="round" strokeLinejoin="round"/>
</g>
</svg>
